<mxfile host="drawio-plugin" modified="2022-11-16T16:35:24.681Z" agent="5.0 (Windows NT 6.2; Win64; x64) AppleWebKit/537.36 (KHTML, like Gecko) Chrome/89.0.4389.114 Safari/537.36" etag="vxmOQiG4ctn_k6Pwkndq" version="15.5.4" type="embed"><diagram id="C5RBs43oDa-KdzZeNtuy" name="Page-1"><mxGraphModel dx="1420" dy="823" grid="0" gridSize="10" guides="1" tooltips="1" connect="1" arrows="1" fold="1" page="0" pageScale="1" pageWidth="2336" pageHeight="1654" background="none" math="0" shadow="0"><root><mxCell id="WIyWlLk6GJQsqaUBKTNV-0"/><mxCell id="WIyWlLk6GJQsqaUBKTNV-1" parent="WIyWlLk6GJQsqaUBKTNV-0"/><mxCell id="41" style="edgeStyle=orthogonalEdgeStyle;rounded=0;orthogonalLoop=1;jettySize=auto;html=1;dashed=1;endArrow=open;endFill=0;endSize=14;startSize=14;" edge="1" parent="WIyWlLk6GJQsqaUBKTNV-1" source="X3iBoTwYunZCs_lj_990-3" target="32"><mxGeometry relative="1" as="geometry"/></mxCell><mxCell id="44" style="edgeStyle=orthogonalEdgeStyle;rounded=0;orthogonalLoop=1;jettySize=auto;html=1;dashed=1;endArrow=open;endFill=0;startSize=14;endSize=14;" edge="1" parent="WIyWlLk6GJQsqaUBKTNV-1" source="X3iBoTwYunZCs_lj_990-3" target="22"><mxGeometry relative="1" as="geometry"/></mxCell><mxCell id="X3iBoTwYunZCs_lj_990-3" value="view::ViewController" style="swimlane;fontStyle=0;align=center;verticalAlign=top;childLayout=stackLayout;horizontal=1;startSize=26;horizontalStack=0;resizeParent=1;resizeLast=0;collapsible=1;marginBottom=0;rounded=0;shadow=0;strokeWidth=1;" parent="WIyWlLk6GJQsqaUBKTNV-1" vertex="1"><mxGeometry x="180" y="90" width="375" height="216" as="geometry"><mxRectangle x="281" width="160" height="26" as="alternateBounds"/></mxGeometry></mxCell><mxCell id="X3iBoTwYunZCs_lj_990-4" value="# window_: sf::RenderWindow" style="text;align=left;verticalAlign=top;spacingLeft=4;spacingRight=4;overflow=hidden;rotatable=0;points=[[0,0.5],[1,0.5]];portConstraint=eastwest;" parent="X3iBoTwYunZCs_lj_990-3" vertex="1"><mxGeometry y="26" width="375" height="26" as="geometry"/></mxCell><mxCell id="X3iBoTwYunZCs_lj_990-5" value="# game_mediator_: GameMediator *" style="text;align=left;verticalAlign=top;spacingLeft=4;spacingRight=4;overflow=hidden;rotatable=0;points=[[0,0.5],[1,0.5]];portConstraint=eastwest;rounded=0;shadow=0;html=0;" parent="X3iBoTwYunZCs_lj_990-3" vertex="1"><mxGeometry y="52" width="375" height="26" as="geometry"/></mxCell><mxCell id="X3iBoTwYunZCs_lj_990-6" value="# keyboard_handler_: KeyboardHandler *" style="text;align=left;verticalAlign=top;spacingLeft=4;spacingRight=4;overflow=hidden;rotatable=0;points=[[0,0.5],[1,0.5]];portConstraint=eastwest;rounded=0;shadow=0;html=0;" parent="X3iBoTwYunZCs_lj_990-3" vertex="1"><mxGeometry y="78" width="375" height="26" as="geometry"/></mxCell><mxCell id="3" value="# command_creator_: CommandCreator *" style="text;align=left;verticalAlign=top;spacingLeft=4;spacingRight=4;overflow=hidden;rotatable=0;points=[[0,0.5],[1,0.5]];portConstraint=eastwest;rounded=0;shadow=0;html=0;" vertex="1" parent="X3iBoTwYunZCs_lj_990-3"><mxGeometry y="104" width="375" height="26" as="geometry"/></mxCell><mxCell id="X3iBoTwYunZCs_lj_990-9" value="# draw_manager_: DrawManager *" style="text;align=left;verticalAlign=top;spacingLeft=4;spacingRight=4;overflow=hidden;rotatable=0;points=[[0,0.5],[1,0.5]];portConstraint=eastwest;rounded=0;shadow=0;html=0;" parent="X3iBoTwYunZCs_lj_990-3" vertex="1"><mxGeometry y="130" width="375" height="26" as="geometry"/></mxCell><mxCell id="X3iBoTwYunZCs_lj_990-7" value="" style="line;html=1;strokeWidth=1;align=left;verticalAlign=middle;spacingTop=-1;spacingLeft=3;spacingRight=3;rotatable=0;labelPosition=right;points=[];portConstraint=eastwest;" parent="X3iBoTwYunZCs_lj_990-3" vertex="1"><mxGeometry y="156" width="375" height="8" as="geometry"/></mxCell><mxCell id="X3iBoTwYunZCs_lj_990-8" value="+ start(): void" style="text;align=left;verticalAlign=top;spacingLeft=4;spacingRight=4;overflow=hidden;rotatable=0;points=[[0,0.5],[1,0.5]];portConstraint=eastwest;" parent="X3iBoTwYunZCs_lj_990-3" vertex="1"><mxGeometry y="164" width="375" height="26" as="geometry"/></mxCell><mxCell id="1" value="+ ask(const std::string &amp;, const std::vector&lt;std::string&gt; &amp;): std::string" style="text;align=left;verticalAlign=top;spacingLeft=4;spacingRight=4;overflow=hidden;rotatable=0;points=[[0,0.5],[1,0.5]];portConstraint=eastwest;" vertex="1" parent="X3iBoTwYunZCs_lj_990-3"><mxGeometry y="190" width="375" height="26" as="geometry"/></mxCell><mxCell id="43" style="edgeStyle=orthogonalEdgeStyle;rounded=0;orthogonalLoop=1;jettySize=auto;html=1;dashed=1;endArrow=open;endFill=0;startSize=14;endSize=14;" edge="1" parent="WIyWlLk6GJQsqaUBKTNV-1" source="22" target="32"><mxGeometry relative="1" as="geometry"/></mxCell><mxCell id="22" value="view::KeyboardHandler" style="swimlane;fontStyle=0;align=center;verticalAlign=top;childLayout=stackLayout;horizontal=1;startSize=26;horizontalStack=0;resizeParent=1;resizeLast=0;collapsible=1;marginBottom=0;rounded=0;shadow=0;strokeWidth=1;" vertex="1" parent="WIyWlLk6GJQsqaUBKTNV-1"><mxGeometry x="711" y="516" width="295" height="86" as="geometry"><mxRectangle x="281" width="160" height="26" as="alternateBounds"/></mxGeometry></mxCell><mxCell id="26" value="# command_creator_: CommandCreator *" style="text;align=left;verticalAlign=top;spacingLeft=4;spacingRight=4;overflow=hidden;rotatable=0;points=[[0,0.5],[1,0.5]];portConstraint=eastwest;rounded=0;shadow=0;html=0;" vertex="1" parent="22"><mxGeometry y="26" width="295" height="26" as="geometry"/></mxCell><mxCell id="28" value="" style="line;html=1;strokeWidth=1;align=left;verticalAlign=middle;spacingTop=-1;spacingLeft=3;spacingRight=3;rotatable=0;labelPosition=right;points=[];portConstraint=eastwest;" vertex="1" parent="22"><mxGeometry y="52" width="295" height="8" as="geometry"/></mxCell><mxCell id="29" value="+ handle(sf::Keyboard::Key): void" style="text;align=left;verticalAlign=top;spacingLeft=4;spacingRight=4;overflow=hidden;rotatable=0;points=[[0,0.5],[1,0.5]];portConstraint=eastwest;" vertex="1" parent="22"><mxGeometry y="60" width="295" height="26" as="geometry"/></mxCell><mxCell id="49" style="edgeStyle=orthogonalEdgeStyle;rounded=0;orthogonalLoop=1;jettySize=auto;html=1;dashed=1;endArrow=open;endFill=0;startSize=14;endSize=14;" edge="1" parent="WIyWlLk6GJQsqaUBKTNV-1" source="32" target="45"><mxGeometry relative="1" as="geometry"/></mxCell><mxCell id="89" style="edgeStyle=orthogonalEdgeStyle;rounded=0;orthogonalLoop=1;jettySize=auto;html=1;entryX=0.5;entryY=0;entryDx=0;entryDy=0;dashed=1;endArrow=open;endFill=0;startSize=14;endSize=14;" edge="1" parent="WIyWlLk6GJQsqaUBKTNV-1" source="32" target="60"><mxGeometry relative="1" as="geometry"/></mxCell><mxCell id="32" value="view::CommandCreator" style="swimlane;fontStyle=0;align=center;verticalAlign=top;childLayout=stackLayout;horizontal=1;startSize=26;horizontalStack=0;resizeParent=1;resizeLast=0;collapsible=1;marginBottom=0;rounded=0;shadow=0;strokeWidth=1;" vertex="1" parent="WIyWlLk6GJQsqaUBKTNV-1"><mxGeometry x="195" y="464" width="345" height="190" as="geometry"><mxRectangle x="281" width="160" height="26" as="alternateBounds"/></mxGeometry></mxCell><mxCell id="34" value="# game_mediator_: GameMediator *" style="text;align=left;verticalAlign=top;spacingLeft=4;spacingRight=4;overflow=hidden;rotatable=0;points=[[0,0.5],[1,0.5]];portConstraint=eastwest;rounded=0;shadow=0;html=0;" vertex="1" parent="32"><mxGeometry y="26" width="345" height="26" as="geometry"/></mxCell><mxCell id="35" value="# keymap_: std::map&lt;std::string, ICommand *&gt; " style="text;align=left;verticalAlign=top;spacingLeft=4;spacingRight=4;overflow=hidden;rotatable=0;points=[[0,0.5],[1,0.5]];portConstraint=eastwest;rounded=0;shadow=0;html=0;" vertex="1" parent="32"><mxGeometry y="52" width="345" height="26" as="geometry"/></mxCell><mxCell id="36" value="# commands_from_string_: std::map&lt;std::string, ICommand *&gt; " style="text;align=left;verticalAlign=top;spacingLeft=4;spacingRight=4;overflow=hidden;rotatable=0;points=[[0,0.5],[1,0.5]];portConstraint=eastwest;rounded=0;shadow=0;html=0;" vertex="1" parent="32"><mxGeometry y="78" width="345" height="26" as="geometry"/></mxCell><mxCell id="37" value="# draw_manager_: DrawManager *" style="text;align=left;verticalAlign=top;spacingLeft=4;spacingRight=4;overflow=hidden;rotatable=0;points=[[0,0.5],[1,0.5]];portConstraint=eastwest;rounded=0;shadow=0;html=0;" vertex="1" parent="32"><mxGeometry y="104" width="345" height="26" as="geometry"/></mxCell><mxCell id="38" value="" style="line;html=1;strokeWidth=1;align=left;verticalAlign=middle;spacingTop=-1;spacingLeft=3;spacingRight=3;rotatable=0;labelPosition=right;points=[];portConstraint=eastwest;" vertex="1" parent="32"><mxGeometry y="130" width="345" height="8" as="geometry"/></mxCell><mxCell id="39" value="+ read(IHandlerReader *): void" style="text;align=left;verticalAlign=top;spacingLeft=4;spacingRight=4;overflow=hidden;rotatable=0;points=[[0,0.5],[1,0.5]];portConstraint=eastwest;" vertex="1" parent="32"><mxGeometry y="138" width="345" height="26" as="geometry"/></mxCell><mxCell id="40" value="+ getCommand(const std::string &amp;): ICommand *" style="text;align=left;verticalAlign=top;spacingLeft=4;spacingRight=4;overflow=hidden;rotatable=0;points=[[0,0.5],[1,0.5]];portConstraint=eastwest;" vertex="1" parent="32"><mxGeometry y="164" width="345" height="26" as="geometry"/></mxCell><mxCell id="45" value="«interface»&#10;view::IHandleReader" style="swimlane;fontStyle=0;align=center;verticalAlign=top;childLayout=stackLayout;horizontal=1;startSize=39;horizontalStack=0;resizeParent=1;resizeLast=0;collapsible=1;marginBottom=0;rounded=0;shadow=0;strokeWidth=1;" vertex="1" parent="WIyWlLk6GJQsqaUBKTNV-1"><mxGeometry x="-339" y="522.5" width="274" height="73" as="geometry"><mxRectangle x="281" width="160" height="26" as="alternateBounds"/></mxGeometry></mxCell><mxCell id="46" value="" style="line;html=1;strokeWidth=1;align=left;verticalAlign=middle;spacingTop=-1;spacingLeft=3;spacingRight=3;rotatable=0;labelPosition=right;points=[];portConstraint=eastwest;" vertex="1" parent="45"><mxGeometry y="39" width="274" height="8" as="geometry"/></mxCell><mxCell id="48" value="+ read(): std::map&lt;std::string, std::string&gt;" style="text;align=left;verticalAlign=top;spacingLeft=4;spacingRight=4;overflow=hidden;rotatable=0;points=[[0,0.5],[1,0.5]];portConstraint=eastwest;" vertex="1" parent="45"><mxGeometry y="47" width="274" height="26" as="geometry"/></mxCell><mxCell id="59" style="edgeStyle=orthogonalEdgeStyle;rounded=0;orthogonalLoop=1;jettySize=auto;html=1;endArrow=block;endFill=0;startSize=14;endSize=14;dashed=1;" edge="1" parent="WIyWlLk6GJQsqaUBKTNV-1" source="50" target="45"><mxGeometry relative="1" as="geometry"/></mxCell><mxCell id="50" value="view::HandlerFileReader" style="swimlane;fontStyle=0;align=center;verticalAlign=top;childLayout=stackLayout;horizontal=1;startSize=26;horizontalStack=0;resizeParent=1;resizeLast=0;collapsible=1;marginBottom=0;rounded=0;shadow=0;strokeWidth=1;" vertex="1" parent="WIyWlLk6GJQsqaUBKTNV-1"><mxGeometry x="-339" y="667" width="275" height="86" as="geometry"><mxRectangle x="281" width="160" height="26" as="alternateBounds"/></mxGeometry></mxCell><mxCell id="54" value="# file_: std::ifstream" style="text;align=left;verticalAlign=top;spacingLeft=4;spacingRight=4;overflow=hidden;rotatable=0;points=[[0,0.5],[1,0.5]];portConstraint=eastwest;rounded=0;shadow=0;html=0;" vertex="1" parent="50"><mxGeometry y="26" width="275" height="26" as="geometry"/></mxCell><mxCell id="56" value="" style="line;html=1;strokeWidth=1;align=left;verticalAlign=middle;spacingTop=-1;spacingLeft=3;spacingRight=3;rotatable=0;labelPosition=right;points=[];portConstraint=eastwest;" vertex="1" parent="50"><mxGeometry y="52" width="275" height="8" as="geometry"/></mxCell><mxCell id="57" value="+ read(): std::map&lt;std::string, std::string&gt;" style="text;align=left;verticalAlign=top;spacingLeft=4;spacingRight=4;overflow=hidden;rotatable=0;points=[[0,0.5],[1,0.5]];portConstraint=eastwest;" vertex="1" parent="50"><mxGeometry y="60" width="275" height="26" as="geometry"/></mxCell><mxCell id="84" style="edgeStyle=orthogonalEdgeStyle;rounded=0;orthogonalLoop=1;jettySize=auto;html=1;dashed=1;endArrow=block;endFill=0;startSize=14;endSize=14;" edge="1" parent="WIyWlLk6GJQsqaUBKTNV-1" source="60" target="71"><mxGeometry relative="1" as="geometry"/></mxCell><mxCell id="85" style="edgeStyle=orthogonalEdgeStyle;rounded=0;orthogonalLoop=1;jettySize=auto;html=1;entryX=0;entryY=0.5;entryDx=0;entryDy=0;dashed=1;endArrow=block;endFill=0;startSize=14;endSize=14;" edge="1" parent="WIyWlLk6GJQsqaUBKTNV-1" source="60" target="75"><mxGeometry relative="1" as="geometry"/></mxCell><mxCell id="86" style="edgeStyle=orthogonalEdgeStyle;rounded=0;orthogonalLoop=1;jettySize=auto;html=1;entryX=0;entryY=0.5;entryDx=0;entryDy=0;dashed=1;endArrow=block;endFill=0;startSize=14;endSize=14;" edge="1" parent="WIyWlLk6GJQsqaUBKTNV-1" source="60" target="79"><mxGeometry relative="1" as="geometry"/></mxCell><mxCell id="88" style="edgeStyle=orthogonalEdgeStyle;rounded=0;orthogonalLoop=1;jettySize=auto;html=1;entryX=0;entryY=0.5;entryDx=0;entryDy=0;dashed=1;endArrow=block;endFill=0;startSize=14;endSize=14;" edge="1" parent="WIyWlLk6GJQsqaUBKTNV-1" source="60" target="66"><mxGeometry relative="1" as="geometry"/></mxCell><mxCell id="60" value="«interface»&#10;view::ICommand" style="swimlane;fontStyle=0;align=center;verticalAlign=top;childLayout=stackLayout;horizontal=1;startSize=39;horizontalStack=0;resizeParent=1;resizeLast=0;collapsible=1;marginBottom=0;rounded=0;shadow=0;strokeWidth=1;" vertex="1" parent="WIyWlLk6GJQsqaUBKTNV-1"><mxGeometry x="230.5" y="787.5" width="274" height="73" as="geometry"><mxRectangle x="281" width="160" height="26" as="alternateBounds"/></mxGeometry></mxCell><mxCell id="61" value="" style="line;html=1;strokeWidth=1;align=left;verticalAlign=middle;spacingTop=-1;spacingLeft=3;spacingRight=3;rotatable=0;labelPosition=right;points=[];portConstraint=eastwest;" vertex="1" parent="60"><mxGeometry y="39" width="274" height="8" as="geometry"/></mxCell><mxCell id="62" value="+ execute(): void" style="text;align=left;verticalAlign=top;spacingLeft=4;spacingRight=4;overflow=hidden;rotatable=0;points=[[0,0.5],[1,0.5]];portConstraint=eastwest;" vertex="1" parent="60"><mxGeometry y="47" width="274" height="26" as="geometry"/></mxCell><mxCell id="65" value="view::MoveUpCommand" style="swimlane;fontStyle=0;align=center;verticalAlign=top;childLayout=stackLayout;horizontal=1;startSize=26;horizontalStack=0;resizeParent=1;resizeLast=0;collapsible=1;marginBottom=0;rounded=0;shadow=0;strokeWidth=1;" vertex="1" parent="WIyWlLk6GJQsqaUBKTNV-1"><mxGeometry x="695" y="891" width="275" height="86" as="geometry"><mxRectangle x="281" width="160" height="26" as="alternateBounds"/></mxGeometry></mxCell><mxCell id="66" value="# game_mediator_: GameMediator *" style="text;align=left;verticalAlign=top;spacingLeft=4;spacingRight=4;overflow=hidden;rotatable=0;points=[[0,0.5],[1,0.5]];portConstraint=eastwest;rounded=0;shadow=0;html=0;" vertex="1" parent="65"><mxGeometry y="26" width="275" height="26" as="geometry"/></mxCell><mxCell id="67" value="" style="line;html=1;strokeWidth=1;align=left;verticalAlign=middle;spacingTop=-1;spacingLeft=3;spacingRight=3;rotatable=0;labelPosition=right;points=[];portConstraint=eastwest;" vertex="1" parent="65"><mxGeometry y="52" width="275" height="8" as="geometry"/></mxCell><mxCell id="68" value="+ read(): std::map&lt;std::string, std::string&gt;" style="text;align=left;verticalAlign=top;spacingLeft=4;spacingRight=4;overflow=hidden;rotatable=0;points=[[0,0.5],[1,0.5]];portConstraint=eastwest;" vertex="1" parent="65"><mxGeometry y="60" width="275" height="26" as="geometry"/></mxCell><mxCell id="70" value="view::MoveDownCommand" style="swimlane;fontStyle=0;align=center;verticalAlign=top;childLayout=stackLayout;horizontal=1;startSize=26;horizontalStack=0;resizeParent=1;resizeLast=0;collapsible=1;marginBottom=0;rounded=0;shadow=0;strokeWidth=1;" vertex="1" parent="WIyWlLk6GJQsqaUBKTNV-1"><mxGeometry x="695" y="1025" width="275" height="86" as="geometry"><mxRectangle x="281" width="160" height="26" as="alternateBounds"/></mxGeometry></mxCell><mxCell id="71" value="# game_mediator_: GameMediator *" style="text;align=left;verticalAlign=top;spacingLeft=4;spacingRight=4;overflow=hidden;rotatable=0;points=[[0,0.5],[1,0.5]];portConstraint=eastwest;rounded=0;shadow=0;html=0;" vertex="1" parent="70"><mxGeometry y="26" width="275" height="26" as="geometry"/></mxCell><mxCell id="72" value="" style="line;html=1;strokeWidth=1;align=left;verticalAlign=middle;spacingTop=-1;spacingLeft=3;spacingRight=3;rotatable=0;labelPosition=right;points=[];portConstraint=eastwest;" vertex="1" parent="70"><mxGeometry y="52" width="275" height="8" as="geometry"/></mxCell><mxCell id="73" value="+ read(): std::map&lt;std::string, std::string&gt;" style="text;align=left;verticalAlign=top;spacingLeft=4;spacingRight=4;overflow=hidden;rotatable=0;points=[[0,0.5],[1,0.5]];portConstraint=eastwest;" vertex="1" parent="70"><mxGeometry y="60" width="275" height="26" as="geometry"/></mxCell><mxCell id="74" value="view::MoveLeftCommand" style="swimlane;fontStyle=0;align=center;verticalAlign=top;childLayout=stackLayout;horizontal=1;startSize=26;horizontalStack=0;resizeParent=1;resizeLast=0;collapsible=1;marginBottom=0;rounded=0;shadow=0;strokeWidth=1;" vertex="1" parent="WIyWlLk6GJQsqaUBKTNV-1"><mxGeometry x="695" y="1166" width="275" height="86" as="geometry"><mxRectangle x="281" width="160" height="26" as="alternateBounds"/></mxGeometry></mxCell><mxCell id="75" value="# game_mediator_: GameMediator *" style="text;align=left;verticalAlign=top;spacingLeft=4;spacingRight=4;overflow=hidden;rotatable=0;points=[[0,0.5],[1,0.5]];portConstraint=eastwest;rounded=0;shadow=0;html=0;" vertex="1" parent="74"><mxGeometry y="26" width="275" height="26" as="geometry"/></mxCell><mxCell id="76" value="" style="line;html=1;strokeWidth=1;align=left;verticalAlign=middle;spacingTop=-1;spacingLeft=3;spacingRight=3;rotatable=0;labelPosition=right;points=[];portConstraint=eastwest;" vertex="1" parent="74"><mxGeometry y="52" width="275" height="8" as="geometry"/></mxCell><mxCell id="77" value="+ read(): std::map&lt;std::string, std::string&gt;" style="text;align=left;verticalAlign=top;spacingLeft=4;spacingRight=4;overflow=hidden;rotatable=0;points=[[0,0.5],[1,0.5]];portConstraint=eastwest;" vertex="1" parent="74"><mxGeometry y="60" width="275" height="26" as="geometry"/></mxCell><mxCell id="78" value="view::MoveRightCommand" style="swimlane;fontStyle=0;align=center;verticalAlign=top;childLayout=stackLayout;horizontal=1;startSize=26;horizontalStack=0;resizeParent=1;resizeLast=0;collapsible=1;marginBottom=0;rounded=0;shadow=0;strokeWidth=1;" vertex="1" parent="WIyWlLk6GJQsqaUBKTNV-1"><mxGeometry x="695" y="1310" width="275" height="86" as="geometry"><mxRectangle x="281" width="160" height="26" as="alternateBounds"/></mxGeometry></mxCell><mxCell id="79" value="# game_mediator_: GameMediator *" style="text;align=left;verticalAlign=top;spacingLeft=4;spacingRight=4;overflow=hidden;rotatable=0;points=[[0,0.5],[1,0.5]];portConstraint=eastwest;rounded=0;shadow=0;html=0;" vertex="1" parent="78"><mxGeometry y="26" width="275" height="26" as="geometry"/></mxCell><mxCell id="80" value="" style="line;html=1;strokeWidth=1;align=left;verticalAlign=middle;spacingTop=-1;spacingLeft=3;spacingRight=3;rotatable=0;labelPosition=right;points=[];portConstraint=eastwest;" vertex="1" parent="78"><mxGeometry y="52" width="275" height="8" as="geometry"/></mxCell><mxCell id="81" value="+ read(): std::map&lt;std::string, std::string&gt;" style="text;align=left;verticalAlign=top;spacingLeft=4;spacingRight=4;overflow=hidden;rotatable=0;points=[[0,0.5],[1,0.5]];portConstraint=eastwest;" vertex="1" parent="78"><mxGeometry y="60" width="275" height="26" as="geometry"/></mxCell></root></mxGraphModel></diagram></mxfile>